<?xml version="1.0" encoding="utf-8"?>
<!-- Generator: Adobe Illustrator 19.0.0, SVG Export Plug-In . SVG Version: 6.00 Build 0)  -->
<svg version="1.1" baseProfile="tiny" id="Layer_1" xmlns:figma="http://www.figma.com/figma/ns"
     xmlns="http://www.w3.org/2000/svg" xmlns:xlink="http://www.w3.org/1999/xlink" x="0px" y="0px" viewBox="-60 89 79 24"
     xml:space="preserve">
<title>Image 2</title>
<desc>Created using Figma</desc>
<g id="yoiLAq.tif">
    <g>
        <path fill="#079DE0" d="M-9.4,91.9c1.1,0,2.2,0,3.3,0c2.4,0.1,3.9,1.7,3.9,4.1c0,1.4-0.3,2.8-1,4.1c-0.9,1.7-2.4,2.6-4.3,2.7
            c-0.9,0.1-1.9,0-2.8,0c-1,0-1.1,0.1-1.2,1.1c-0.2,1.1-0.3,2.3-0.5,3.4c-0.1,0.9-0.3,1-1.2,1c-0.6,0-1.3,0-1.9,0
            c-0.8,0-1-0.2-0.8-1c0.2-1.3,0.4-2.6,0.6-3.8c0.5-3.4,1-6.8,1.5-10.2c0-0.2,0.1-0.5,0.1-0.7c0.1-0.5,0.4-0.7,0.9-0.7
            C-11.7,91.9-10.5,91.9-9.4,91.9C-9.4,91.9-9.4,91.9-9.4,91.9z M-9.5,99.7c2.1,0,3.1-0.8,3.1-2.8c0-1.1-0.6-1.8-1.7-1.8
            c-0.5,0-1.1,0-1.6,0c-0.4,0-0.5,0.1-0.6,0.5c-0.1,0.9-0.3,1.9-0.4,2.8C-10.9,99.7-10.8,99.7-9.5,99.7z"/>
        <path fill="#163C85" d="M-50.6,91.9c0.9,0,1.8,0,2.7,0c2.4-0.1,4.8,1.2,4.5,4.7c-0.1,1.4-0.4,2.7-1.2,3.9c-1,1.6-2.4,2.4-4.2,2.4
            c-1,0.1-2,0-3,0c-0.5,0-0.8,0.2-0.9,0.7c-0.2,1.3-0.4,2.6-0.6,4c-0.1,0.6-0.4,0.9-1,0.8c-0.7,0-1.4,0-2.1,0c-0.7,0-0.9-0.3-0.8-1
            c0.3-1.8,0.6-3.5,0.8-5.3c0.5-3.1,1-6.2,1.4-9.3c0.1-0.6,0.4-0.9,1-0.9C-52.9,91.9-51.8,91.9-50.6,91.9z M-50.9,99.7
            c2.2,0,3.1-0.8,3.2-2.7c0.1-1.1-0.6-1.9-1.7-1.9c-0.5,0-1.1,0-1.6,0c-0.3,0-0.4,0.1-0.5,0.4c-0.1,1-0.3,2-0.5,3
            C-52.2,99.7-52.1,99.7-50.9,99.7z"/>
        <path fill="#163C85" d="M-35.8,107.1c-0.4,0.1-0.6,0.4-0.9,0.7c-2.5,1.9-6.1,1-7.2-1.8c-0.5-1.3-0.4-2.6-0.1-3.9
            c0.7-2.8,3-4.8,5.7-5c1.9-0.1,2.7,0.2,3.7,1.6c0,0,0.1,0,0.1-0.1c0.2-1.2,0.2-1.2,1.5-1.2c0.5,0,1,0,1.6,0c0.5,0,0.6,0.2,0.6,0.6
            c-0.2,1.6-0.5,3.3-0.8,4.9c-0.2,1.4-0.5,2.7-0.6,4.1c-0.1,1.2-0.2,1.4-1.5,1.4c-0.3,0-0.5,0-0.8,0
            C-35.8,108.4-35.8,108.4-35.8,107.1z M-34.9,102.5c0-1.4-1-2.5-2.4-2.5c-1.7,0-3.3,1.5-3.3,3.2c0,1.5,1,2.5,2.4,2.5
            C-36.5,105.8-34.9,104.3-34.9,102.5z"/>
        <path fill="#079DE0" d="M6.7,98.7c0.5-1.3,0.5-1.3,1.8-1.3c0.4,0,0.8,0,1.2,0c0.5,0,0.7,0.2,0.6,0.7c-0.5,3.2-1,6.4-1.5,9.6
            c-0.1,0.5-0.3,0.8-0.9,0.7c-0.6,0-1.3,0-1.9,0c-0.6,0-0.8-0.2-0.7-0.8c0-0.2,0.2-0.4,0-0.5c-0.2-0.1-0.4,0.1-0.5,0.3
            c-1.3,1.2-2.8,1.5-4.5,1.2c-2.3-0.5-3.7-2.6-3.4-5c0.3-2.5,1.2-4.5,3.5-5.8c1.4-0.7,2.8-1,4.4-0.6C5.7,97.4,5.9,97.6,6.7,98.7z
             M6.4,102.5c0-1.4-1.1-2.4-2.5-2.4c-1.8,0-3.2,1.5-3.2,3.3c0,1.4,1,2.5,2.4,2.5C4.8,105.8,6.4,104.2,6.4,102.5z"/>
        <path fill="#163C85" d="M-23.7,103.6c0.6-0.8,1.1-1.6,1.5-2.3c0.7-1.1,1.5-2.2,2.2-3.3c0.3-0.5,0.7-0.8,1.4-0.7c0.6,0,1.2,0,1.8,0
            c0.3,0,0.6-0.1,0.7,0.2c0.2,0.3,0,0.6-0.2,0.9c-0.9,1.4-1.8,2.7-2.8,4.1c-2,3-4,5.9-6,8.9c-0.3,0.4-0.5,0.6-1,0.5
            c-0.9,0-1.8,0-2.7,0c-0.2,0-0.4,0.1-0.5-0.1c-0.1-0.2,0.1-0.4,0.2-0.5c0.8-1.2,1.7-2.4,2.5-3.6c0.2-0.3,0.3-0.6,0.1-0.9
            c-0.9-2.7-1.8-5.5-2.7-8.2c-0.3-1-0.2-1.2,0.8-1.2c0.6,0,1.2,0,1.8,0c0.6,0,0.9,0.3,1.1,0.9C-24.8,100-24.3,101.7-23.7,103.6z"/>
        <path fill="#079DE0" d="M12.7,108.4c-1.7,0-1.8,0-1.5-1.7c0.7-4.7,1.4-9.4,2.2-14.1c0.1-0.5,0.3-0.7,0.8-0.7c0.7,0,1.4,0,2.1,0
            c0.6,0,0.8,0.2,0.7,0.8c-0.2,1.5-0.5,3.1-0.7,4.6c-0.5,3.4-1.1,6.8-1.6,10.2c-0.2,1-0.2,1-1.2,1C13.2,108.4,12.9,108.4,12.7,108.4
            z"/>
        <path fill="#FDFDFD" d="M-9.5,99.7c-1.3,0-1.3,0-1.2-1.3c0.1-0.9,0.3-1.9,0.4-2.8c0-0.4,0.2-0.5,0.6-0.5c0.5,0,1.1,0,1.6,0
            c1.1,0.1,1.7,0.7,1.7,1.8C-6.5,98.9-7.4,99.7-9.5,99.7z"/>
        <path fill="#FDFDFD" d="M-50.9,99.7c-1.2,0-1.3,0-1.1-1.2c0.1-1,0.3-2,0.5-3c0-0.3,0.2-0.4,0.5-0.4c0.5,0,1.1,0,1.6,0
            c1.1,0.1,1.8,0.8,1.7,1.9C-47.8,98.9-48.7,99.7-50.9,99.7z"/>
        <path fill="#FDFDFD" d="M-34.9,102.5c0,1.7-1.6,3.3-3.3,3.2c-1.4,0-2.4-1.1-2.4-2.5c0-1.7,1.6-3.2,3.3-3.2
            C-35.9,100.1-34.9,101.1-34.9,102.5z"/>
        <path fill="#FDFDFD" d="M6.4,102.5c0,1.7-1.6,3.3-3.3,3.3c-1.4,0-2.4-1-2.4-2.5c0-1.7,1.5-3.3,3.2-3.3
            C5.3,100,6.4,101.1,6.4,102.5z"/>
    </g>
</g>
</svg>
